#!OML:ASF F:\VICON\USERDATA\INSTALL\rory3\rory3.ASF
:FULLY-SPECIFIED
:DEGREES
293
root -5.38882 17.7803 11.2997 -178.323 15.579 -180.574
lowerback 13.7814 1.12641 -5.32023
upperback 0.950775 0.851149 0.73805
thorax -6.81807 0.641633 3.62567
lowerneck -15.7187 -7.84369 -11.3959
upperneck 35.12 -8.50814 7.93925
head 16.0752 -3.20107 4.07682
rclavicle -2.29503e-014 1.39646e-014
rhumerus -37.813 -20.1802 -72.8638
rradius 35.7304
rwrist 9.53707
rhand -18.6098 7.56596
rfingers 7.12502
rthumb 7.68177 -22.2745
lclavicle -2.29503e-014 1.39646e-014
lhumerus -34.7526 8.52213 75.9798
lradius 33.2353
lwrist -5.86967
lhand -16.9177 29.0587
lfingers 7.12502
lthumb 9.31475 58.8329
rfemur -21.101 -16.4336 14.2926
rtibia 53.6066
rfoot -18.6552 8.55846
rtoes -26.5865
lfemur -8.14461 -2.70143 -20.0159
ltibia 23.5045
lfoot -15.4613 -8.24276
ltoes -2.57509
294
root -5.34458 17.7939 11.3185 -178.361 14.9734 -180.502
lowerback 13.7914 1.06873 -5.15457
upperback 0.986171 0.804977 0.758886
thorax -6.77868 0.613917 3.56284
lowerneck -15.7573 -7.84777 -11.2391
upperneck 35.2051 -8.48061 7.77095
head 16.102 -3.18281 3.985
rclavicle -3.64584e-014 7.03201e-015
rhumerus -37.7967 -20.5233 -72.738
rradius 35.5095
rwrist 10.0401
rhand -18.7696 8.217
rfingers 7.12502
rthumb 7.52755 -21.6291
lclavicle -3.64584e-014 7.03201e-015
lhumerus -34.6695 8.33105 75.963
lradius 33.8051
lwrist -5.57269
lhand -17.9249 28.2303
lfingers 7.12502
lthumb 8.34278 58.0456
rfemur -20.7228 -15.847 13.6892
rtibia 53.0244
rfoot -18.6675 6.82032
rtoes -25.3897
lfemur -7.9776 -2.99484 -19.74
ltibia 23.1006
lfoot -15.2096 -8.66828
ltoes -1.58645
295
root -5.29833 17.8079 11.3354 -178.442 14.3749 -180.243
lowerback 13.9202 0.992895 -4.84033
upperback 1.02809 0.759799 0.871116
thorax -6.79826 0.585831 3.51246
lowerneck -15.7848 -7.83586 -11.2087
upperneck 35.2802 -8.41155 7.66673
head 16.1288 -3.15648 3.95168
rclavicle 2.81341e-014 -4.99679e-016
rhumerus -37.6107 -21.1217 -72.3994
rradius 34.8844
rwrist 10.7383
rhand -18.7515 8.92145
rfingers 7.12502
rthumb 7.54502 -20.924
lclavicle 2.81341e-014 -4.99679e-016
lhumerus -34.596 8.09879 76.0176
lradius 34.3705
lwrist -5.11289
lhand -19.1217 27.8535
lfingers 7.12502
lthumb 7.18764 57.7115
rfemur -20.1775 -15.1964 13.2758
rtibia 52.293
rfoot -18.6275 4.89009
rtoes -25.1581
lfemur -7.75038 -3.26289 -19.2625
ltibia 22.7856
lfoot -14.97 -9.07175
ltoes -0.474344
296
root -5.24915 17.8183 11.3525 -178.503 13.8432 -179.878
lowerback 14.0677 0.926032 -4.47131
upperback 1.06978 0.738784 1.02253
thorax -6.83097 0.569198 3.46796
lowerneck -15.9311 -7.80693 -11.0792
upperneck 35.3895 -8.29596 7.42995
head 16.18 -3.11528 3.84991
rclavicle -4.3919e-015 -4.43538e-015
rhumerus -37.5426 -21.4357 -72.1878
rradius 34.6016
rwrist 11.0184
rhand -18.841 8.82286
rfingers 7.12502
rthumb 7.45864 -21.0257
lclavicle -4.3919e-015 -4.43538e-015
lhumerus -34.5263 8.02918 76.0352
lradius 34.9472
lwrist -4.80043
lhand -18.8168 28.3258
lfingers 7.12502
lthumb 7.48199 58.1734
rfemur -19.6106 -14.3252 13.0023
rtibia 51.4501
rfoot -18.3505 3.00563
rtoes -24.7311
lfemur -7.5513 -3.50338 -18.6731
ltibia 22.5259
lfoot -14.7587 -9.33238
ltoes -0.488797
297
root -5.20365 17.8214 11.371 -178.542 13.3148 -179.687
lowerback 14.1222 0.879325 -4.21889
upperback 1.07408 0.72391 1.12533
thorax -6.85353 0.557366 3.43696
lowerneck -15.8609 -7.78048 -11.0335
upperneck 35.3897 -8.20594 7.28609
head 16.1391 -3.08695 3.79776
rclavicle 1.06412e-014 1.63997e-015
rhumerus -37.6901 -21.6129 -71.9631
rradius 34.6988
rwrist 10.9456
rhand -18.7833 8.5935
rfingers 7.12502
rthumb 7.51428 -21.253
lclavicle 1.06412e-014 1.63997e-015
lhumerus -34.5109 8.02042 76.0546
lradius 35.3802
lwrist -4.46128
lhand -18.5994 28.2072
lfingers 7.12502
lthumb 7.69182 58.0473
rfemur -19.1066 -13.5254 12.5029
rtibia 50.5354
rfoot -17.9319 1.58073
rtoes -23.1823
lfemur -7.46855 -3.80891 -18.2845
ltibia 22.3047
lfoot -14.5531 -9.49163
ltoes -1.38439
298
root -5.1549 17.8255 11.3869 -178.541 12.8035 -179.57
lowerback 14.0943 0.829218 -4.04295
upperback 1.04311 0.691193 1.21438
thorax -6.86731 0.537879 3.43865
lowerneck -15.7638 -7.75855 -11.1479
upperneck 35.4488 -8.11903 7.30338
head 16.1441 -3.05517 3.8497
rclavicle -1.35422e-015 -3.97569e-015
rhumerus -37.8983 -21.7633 -71.7158
rradius 34.7168
rwrist 10.7827
rhand -18.8882 8.77628
rfingers 7.12502
rthumb 7.41305 -21.0738
lclavicle -1.35422e-015 -3.97569e-015
lhumerus -34.5736 8.01791 76.073
lradius 35.8116
lwrist -3.97708
lhand -18.9584 28.1983
lfingers 7.12502
lthumb 7.34531 58.0508
rfemur -18.6135 -12.7148 11.941
rtibia 49.5546
rfoot -17.4741 0.310865
rtoes -21.3252
lfemur -7.45463 -4.0181 -17.9629
ltibia 22.1281
lfoot -14.4484 -9.59058
ltoes -2.17583
